<svg width="50" height="50" viewBox="0 0 50 50" fill="none" xmlns="http://www.w3.org/2000/svg">
<g id="Group">
<path id="Vector" fill-rule="evenodd" clip-rule="evenodd" d="M11.8104 9.9167C11.8662 9.44346 12.0318 8.9898 12.2939 8.59186C12.5561 8.19391 12.9075 7.86268 13.3202 7.62454C13.733 7.3864 14.1957 7.24793 14.6714 7.22017C15.1471 7.1924 15.6227 7.27611 16.0604 7.46461C18.2729 8.41045 23.2312 10.6584 29.5229 14.2896C35.8166 17.9229 40.2437 21.0959 42.1666 22.5354C43.8083 23.7667 43.8124 26.2084 42.1687 27.4438C40.2645 28.875 35.8916 32.0063 29.5229 35.6854C23.1479 39.3646 18.2479 41.5854 16.0562 42.5188C14.1687 43.325 12.0562 42.1021 11.8104 40.0667C11.5229 37.6875 10.9854 32.2854 10.9854 24.9896C10.9854 17.6979 11.5208 12.2979 11.8104 9.9167Z" fill="black"/>
</g>
</svg>
