<svg width="32" height="32" viewBox="0 0 32 32" fill="none" xmlns="http://www.w3.org/2000/svg">
<g id="Group">
<path id="Vector" d="M5.33341 20.0001H8.00008V26.6667H24.0001V5.33341H8.00008V12.0001H5.33341V4.00008C5.33341 3.64646 5.47389 3.30732 5.72394 3.05727C5.97399 2.80722 6.31313 2.66675 6.66675 2.66675H25.3334C25.687 2.66675 26.0262 2.80722 26.2762 3.05727C26.5263 3.30732 26.6667 3.64646 26.6667 4.00008V28.0001C26.6667 28.3537 26.5263 28.6928 26.2762 28.9429C26.0262 29.1929 25.687 29.3334 25.3334 29.3334H6.66675C6.31313 29.3334 5.97399 29.1929 5.72394 28.9429C5.47389 28.6928 5.33341 28.3537 5.33341 28.0001V20.0001ZM13.3334 14.6667V10.6667L20.0001 16.0001L13.3334 21.3334V17.3334H2.66675V14.6667H13.3334Z" fill="white"/>
</g>
</svg>
