<svg width="61" height="40" viewBox="0 0 61 40" fill="none" xmlns="http://www.w3.org/2000/svg">
<g id="Group 59">
<path id="Vector" d="M33.75 17.4994C33.7504 18.2752 33.5102 19.032 33.0624 19.6656C32.6147 20.2991 31.9814 20.7783 31.25 21.0369V26.2494C31.25 26.5809 31.1183 26.8988 30.8839 27.1332C30.6495 27.3677 30.3315 27.4994 30 27.4994C29.6685 27.4994 29.3505 27.3677 29.1161 27.1332C28.8817 26.8988 28.75 26.5809 28.75 26.2494V21.0369C28.1019 20.8077 27.5293 20.4048 27.0946 19.8723C26.66 19.3397 26.3802 18.6979 26.2856 18.017C26.1911 17.3361 26.2855 16.6424 26.5586 16.0115C26.8317 15.3807 27.273 14.8371 27.8341 14.44C28.3953 14.043 29.0548 13.8079 29.7406 13.7603C30.4263 13.7128 31.112 13.8546 31.7226 14.1704C32.3332 14.4861 32.8452 14.9637 33.2028 15.5508C33.5603 16.1379 33.7496 16.8119 33.75 17.4994ZM30.6925 0.209354C30.4874 0.0728358 30.2464 0 30 0C29.7536 0 29.5126 0.0728358 29.3075 0.209354C24.5878 3.39109 19.2078 5.46054 13.5725 6.26186C13.2748 6.30457 13.0024 6.45322 12.8054 6.68052C12.6084 6.90783 12.5 7.19856 12.5 7.49935V18.7494C12.5 28.4769 18.2675 35.5744 29.55 39.9169C29.8396 40.0286 30.1604 40.0286 30.45 39.9169C41.7325 35.5744 47.5 28.4744 47.5 18.7494V7.49935C47.5 7.19818 47.3912 6.90716 47.1937 6.67979C46.9962 6.45243 46.7232 6.30402 46.425 6.26186C40.7906 5.46017 35.4114 3.39074 30.6925 0.209354ZM15 8.56935C19.9526 7.73055 24.7023 5.96465 29 3.36435L30 2.74185L31 3.36435C35.2977 5.96465 40.0474 7.73055 45 8.56935V18.7494C45 27.2294 40.08 33.4069 30 37.4069C19.92 33.4069 15 27.2294 15 18.7494V8.56935Z" fill="#2345AD"/>
<g id="Group 44">
<path id="Vector_2" d="M30.505 9.00746C29.0935 9.06109 26.9122 9.37437 24.844 10.9474C21.253 13.6794 20.9642 18.4153 20.9642 18.4153C20.9548 18.5388 20.9693 18.6631 21.0068 18.7809C21.0443 18.8987 21.1041 19.0078 21.1829 19.102C21.3419 19.2922 21.5682 19.41 21.8121 19.4295C22.056 19.4489 22.2975 19.3685 22.4834 19.2058C22.5754 19.1252 22.6511 19.0269 22.706 18.9165C22.7609 18.806 22.794 18.6856 22.8034 18.5621C22.8034 18.5621 23.1703 14.6014 25.965 12.4761C28.2015 10.7752 30.4067 10.8881 31.626 10.8881C31.8699 10.8881 32.1038 10.789 32.2763 10.6125C32.4487 10.4361 32.5456 10.1968 32.5456 9.94731C32.5456 9.69779 32.4487 9.4585 32.2763 9.28207C32.1038 9.10564 31.8699 9.00652 31.626 9.00652C31.3575 9.00652 30.9759 8.98959 30.505 9.00746ZM31.1083 12.0932C30.0167 12.1026 28.8571 12.4347 27.6883 13.0933C25.9687 14.0632 24.8403 15.577 24.4127 17.5037C24.1644 18.6232 24.2049 19.8105 24.3842 20.9432H19.0101C18.9813 20.9418 18.9525 20.9418 18.9237 20.9432C18.8949 20.9418 18.866 20.9418 18.8372 20.9432C18.5933 20.9666 18.3685 21.0882 18.2123 21.2813C18.056 21.4743 17.9811 21.7229 18.0041 21.9724C18.027 22.2219 18.1459 22.4519 18.3345 22.6117C18.5232 22.7716 18.7662 22.8482 19.0101 22.8247H41.0804C41.3243 22.8247 41.5582 22.7256 41.7307 22.5492C41.9031 22.3728 42 22.1335 42 21.884C42 21.6344 41.9031 21.3952 41.7307 21.2187C41.5582 21.0423 41.3243 20.9432 41.0804 20.9432H36.4824C35.7624 20.2282 35.2621 19.2347 34.7867 18.2676C33.9085 16.481 32.7084 14.0359 29.6719 15.3869C28.6861 15.8263 27.9835 16.5977 27.6028 17.6504C27.2166 18.7182 27.2184 19.9008 27.4299 20.9432H26.2519C26.0588 19.9318 26.011 18.8725 26.2234 17.9148C26.5361 16.5083 27.315 15.4528 28.5794 14.7397C29.9846 13.9475 31.2518 13.7565 32.4013 14.1808C34.5623 14.9805 35.9923 17.7652 36.8273 19.9431C37.013 20.4286 37.5629 20.66 38.0347 20.4728C38.5074 20.2827 38.7382 19.7211 38.5515 19.2375C37.5777 16.6974 35.8139 13.4555 33.0054 12.4169C32.3973 12.193 31.7545 12.0828 31.1083 12.0932ZM31.2518 16.8564C31.9589 16.8357 32.359 17.4839 33.1489 19.0908C33.4358 19.6759 33.7604 20.3251 34.1549 20.9432H32.5162C31.9111 19.9394 31.8854 19.1378 31.8844 19.0616C31.8865 18.9399 31.8651 18.819 31.8214 18.7058C31.7777 18.5926 31.7126 18.4894 31.6298 18.402C31.547 18.3146 31.4482 18.2448 31.339 18.1965C31.2298 18.1483 31.1123 18.1225 30.9934 18.1208C30.4793 18.086 30.0581 18.5131 30.0452 19.0324C30.0443 19.1049 30.0526 19.8895 30.4765 20.9432H29.327C29.0659 20.0015 29.0631 19.0296 29.327 18.2968C29.5358 17.721 29.888 17.3277 30.4186 17.0926C30.7451 16.9467 31.0163 16.863 31.2518 16.8564ZM25.1613 23.7655C25.4592 24.472 25.805 25.0996 26.1664 25.6179C27.6387 27.7253 29.042 28.8693 31.4826 29.9389C31.5923 29.9841 31.7103 30.0043 31.8283 29.9982C32.1842 29.9982 32.541 29.795 32.69 29.4394C32.785 29.2094 32.7869 28.9503 32.6953 28.7189C32.6038 28.4875 32.4263 28.3027 32.2017 28.2051C30.059 27.2643 28.9445 26.3668 27.6607 24.5294C27.4924 24.2846 27.3389 24.0295 27.2009 23.7655H25.1594H25.1613ZM28.5803 23.7655C30.3009 26.6368 32.8988 28.2634 35.8801 28.2634C35.9527 28.2634 36.0364 28.2653 36.11 28.2634C36.3471 28.2494 36.5697 28.1422 36.7313 27.9642C36.8929 27.7861 36.9811 27.5511 36.9773 27.3082C36.9735 27.0653 36.878 26.8332 36.7109 26.6606C36.5438 26.488 36.318 26.3881 36.0806 26.3818H35.9086C33.9453 26.3818 32.1566 25.4467 30.8223 23.7655H28.5803ZM32.4886 23.7655C33.2666 24.4664 34.2984 25.1419 35.6502 25.7355C35.7579 25.7891 35.8754 25.8189 35.995 25.823C36.3518 25.823 36.7068 25.6217 36.8567 25.2651C36.9519 25.0351 36.954 24.7757 36.8624 24.5441C36.7709 24.3125 36.5932 24.1275 36.3684 24.0299C36.1817 23.9471 36.0208 23.8502 35.8507 23.7655H32.4886Z" fill="#2345AD"/>
<path id="Vector_3" d="M33.8533 19.9424C34.307 19.3004 34.5504 18.5334 34.55 17.7473C34.5496 17.0507 34.3578 16.3676 33.9955 15.7727C33.6332 15.1778 33.1143 14.6939 32.4955 14.3739C31.8768 14.0539 31.182 13.9102 30.4871 13.9584C29.7922 14.0066 29.1239 14.2448 28.5553 14.6472C27.9866 15.0495 27.5395 15.6004 27.2628 16.2396C26.986 16.8789 26.8903 17.5819 26.9861 18.2718C27.0819 18.9618 27.3655 19.6121 27.8059 20.1518C28.2388 20.6824 28.807 21.0859 29.45 21.32V26.4973C29.45 26.8421 29.587 27.1727 29.8308 27.4165C30.0746 27.6603 30.4052 27.7973 30.75 27.7973C31.0948 27.7973 31.4254 27.6603 31.6692 27.4165C31.913 27.1727 32.05 26.8421 32.05 26.4973V21.32C32.7771 21.0553 33.4064 20.5748 33.8533 19.9424Z" fill="#520F0F" stroke="#2345AD" stroke-width="0.1"/>
</g>
<g id="Group 55">
<path id="Vector 2" d="M47.3379 16.8472H50.095" stroke="#2345AD" stroke-width="0.5" stroke-linecap="round"/>
<circle id="Ellipse 16" cx="51" cy="16.9993" r="1" fill="#2345AD"/>
</g>
<g id="Group 53">
<path id="Vector 10" d="M46 26.9993C48.0222 27.3363 49.9906 27.6644 52 27.9993" stroke="#2345AD" stroke-width="0.5" stroke-linecap="round"/>
<circle id="Ellipse 18" cx="52" cy="27.9993" r="1" fill="#2345AD"/>
</g>
<g id="Group 51">
<path id="Vector 6" d="M37.8877 36.5291C38.308 36.9153 38.7913 37.224 39.2405 37.5756C39.3635 37.6718 39.5904 37.8955 39.751 37.9074C40.4894 37.9621 41.2526 37.9042 41.9844 37.8181C42.6165 37.7437 44.2396 37.3567 44.6262 37.8436C45.8151 39.3407 47.9129 39.0574 49.6036 38.8518C50.4996 38.7428 51.4444 38.3975 52.3347 38.3668C52.558 38.3591 52.9453 38.4602 53.0494 38.252" stroke="#2345AD" stroke-width="0.5" stroke-linecap="round"/>
<circle id="Ellipse 20" cx="53" cy="37.9993" r="1" fill="#2345AD"/>
</g>
<g id="Group 50">
<path id="Vector 11" d="M22.9969 34.3865C22.9969 34.7411 21.3759 37.0253 21.0911 37.0253C18.9257 37.0253 16.7603 37.0253 14.5949 37.0253C13.9272 37.0253 13.92 36.9564 13.6694 37.5292C13.5631 37.7722 13.5238 38.3345 13.3579 38.5096C12.9588 38.9309 11.9926 39.159 11.4521 39.2976C10.1677 39.6269 8.50048 39.3342 7.16406 39.3342" stroke="#2345AD" stroke-width="0.5" stroke-linecap="round"/>
<circle id="Ellipse 21" cx="7" cy="38.9993" r="1" fill="#2345AD"/>
</g>
<g id="Group 46">
<path id="Vector 8" d="M10 16.9993H12.7571" stroke="#2345AD" stroke-width="0.5" stroke-linecap="round"/>
<circle id="Ellipse 24" cx="10" cy="16.9993" r="1" fill="#2345AD"/>
</g>
<g id="Group 48">
<path id="Vector 9" d="M8 27.9993C10.0222 27.6622 11.9906 27.3342 14 26.9993" stroke="#2345AD" stroke-width="0.5" stroke-linecap="round"/>
<circle id="Ellipse 25" cx="8" cy="27.9993" r="1" fill="#2345AD"/>
</g>
<g id="Group 47">
<circle id="Ellipse 23" cx="1" cy="20.9993" r="1" fill="#2345AD"/>
<path id="Vector 7" d="M0.984375 20.5099C1.72736 20.5099 2.47034 20.5099 3.21332 20.5099C3.49631 20.5099 3.8937 20.4374 4.17019 20.5154C4.34825 20.5657 4.60258 20.9966 4.78371 21.1159C5.09053 21.3179 5.31627 21.4347 5.6449 21.5884C5.89413 21.7051 5.98398 21.8174 6.27531 21.8108C7.94053 21.7735 9.6016 21.7108 11.2679 21.7108C11.898 21.7108 12.5063 21.6107 13.1423 21.6107" stroke="#2345AD" stroke-width="0.5" stroke-linecap="round"/>
</g>
<g id="Group 54">
<path id="Vector 3" d="M46.8579 19.8126C47.6009 19.8126 48.3439 19.8126 49.0869 19.8126C49.3698 19.8126 49.7672 19.7401 50.0437 19.8182C50.2218 19.8684 50.4761 20.2993 50.6572 20.4186C50.9641 20.6206 51.1898 20.7374 51.5184 20.8912C51.7677 21.0078 51.8575 21.1201 52.1488 21.1136C53.8141 21.0762 55.4751 21.0135 57.1415 21.0135C57.7716 21.0135 58.3798 20.9134 59.0158 20.9134" stroke="#2345AD" stroke-width="0.5" stroke-linecap="round"/>
<circle id="Ellipse 17" cx="59.4902" cy="20.9993" r="1" fill="#2345AD"/>
</g>
<g id="Group 45">
<path id="Vector 6_2" d="M13.0791 12.6391C12.1504 12.6391 11.2216 12.6391 10.2929 12.6391C9.86574 12.6391 9.44994 12.9477 9.04899 13.0839C8.27463 13.3468 7.43785 13.2395 6.61741 13.2395C5.7046 13.2395 4.85893 13.4397 3.96069 13.4397" stroke="#2345AD" stroke-width="0.5" stroke-linecap="round"/>
<ellipse id="Ellipse 25_2" cx="3.13343" cy="13.6192" rx="1.03333" ry="0.98" fill="#2345AD"/>
</g>
<g id="Group 49">
<path id="Vector 8_2" d="M3.96094 30.3004C5.07541 30.3004 6.18988 30.3004 7.30436 30.3004C7.42475 30.3004 7.78789 30.2404 7.88973 30.3227C8.34596 30.6914 8.6097 31.2866 9.07738 31.6459C9.35855 31.8619 10.1109 31.6327 10.3776 31.5903C11.7542 31.3715 13.1738 31.2681 14.5259 31.001C15.3047 30.8471 16.4332 31.0459 17.132 30.7007" stroke="#2345AD" stroke-width="0.5" stroke-linecap="round"/>
<ellipse id="Ellipse 22" cx="3.13343" cy="30.2793" rx="1.03333" ry="0.98" fill="#2345AD"/>
</g>
<g id="Group 52">
<path id="Vector 5" d="M42.501 30.6205C43.6154 30.6205 44.7299 30.6205 45.8444 30.6205C45.9648 30.6205 46.3279 30.5605 46.4298 30.6428C46.886 31.0115 47.1497 31.6067 47.6174 31.966C47.8986 32.182 48.651 31.9528 48.9176 31.9104C50.2943 31.6915 51.7139 31.5881 53.066 31.321C53.8447 31.1672 54.9732 31.3659 55.672 31.0208" stroke="#2345AD" stroke-width="0.5" stroke-linecap="round"/>
<ellipse id="Ellipse 19" cx="55.8742" cy="31.2593" rx="1.03333" ry="0.98" fill="#2345AD"/>
</g>
<g id="Group 56">
<path id="Vector 1" d="M47.0605 12.6072C47.9893 12.6072 48.918 12.6072 49.8467 12.6072C50.2739 12.6072 50.6897 12.2986 51.0907 12.1625C51.865 11.8995 52.7018 12.0068 53.5222 12.0068C54.4351 12.0068 55.2807 11.8066 56.179 11.8066" stroke="#2345AD" stroke-width="0.5" stroke-linecap="round"/>
<circle id="Ellipse 15" cx="56" cy="11.9993" r="1" fill="#2345AD"/>
</g>
</g>
</svg>
